<svg id="Слой_1" data-name="Слой 1" xmlns="http://www.w3.org/2000/svg" viewBox="0 0 290.01 287.14"><defs><style>.cls-1{fill:#fff;}.cls-1,.cls-2,.cls-3,.cls-4,.cls-5,.cls-6{stroke:#1d1d1b;stroke-miterlimit:10;stroke-width:9px;}.cls-2,.cls-3,.cls-4,.cls-5,.cls-6{fill:none;}.cls-3{stroke-dasharray:16 16;}.cls-4{stroke-dasharray:21.45 21.45;}.cls-5{stroke-dasharray:21.33 21.33;}.cls-6{stroke-dasharray:17.8 17.8;}</style></defs><title>Кубікі хуюбікі</title><polygon class="cls-1" points="217.14 70 72.46 70 72.46 217.14 4.5 217.14 4.5 4.5 217.14 4.5 217.14 70"/><path class="cls-2" d="M336,241h10" transform="translate(-118.86 -171.36)"/><path class="cls-3" d="M362,241h24" transform="translate(-118.86 -171.36)"/><path class="cls-2" d="M394,241h10c-.05,3.33-.09,6.67-.12,10" transform="translate(-118.86 -171.36)"/><path class="cls-4" d="M403.79,272.44c0,53.62,1.38,107.23-.08,160.84" transform="translate(-118.86 -171.36)"/><path class="cls-2" d="M403.38,444q-.17,5-.38,10H393" transform="translate(-118.86 -171.36)"/><path class="cls-5" d="M371.67,454h-160" transform="translate(-118.86 -171.36)"/><path class="cls-2" d="M201,454H191V444" transform="translate(-118.86 -171.36)"/><path class="cls-6" d="M191,426.2q0-18.84,0-37.7,0-47.85.21-95.79" transform="translate(-118.86 -171.36)"/><path class="cls-2" d="M191.27,283.8c0-3.33,0-6.66,0-10" transform="translate(-118.86 -171.36)"/></svg>